<svg xmlns="http://www.w3.org/2000/svg" width="16" height="16"><linearGradient id="a" x1="8" x2="8" y1="1" y2="15" gradientUnits="userSpaceOnUse"><stop offset="0" stop-color="#d00"/><stop offset=".5" stop-color="#d9d256"/><stop offset="1" stop-color="#00e855"/></linearGradient><path fill="url(#a)" d="m 11.971,1.002 c -0.08326,0.00207 -0.16593,0.014541 -0.24609,0.037109 l -7,2 C 4.2961,3.161979 4.00051,3.553979 4.0003,4.000049 v 5.5508 C 3.83576,9.51717 3.66825,9.500157 3.5003,9.500068 c -1.3807,0 -2.5,1.1193 -2.5,2.5 -4.8e-6,1.3807 1.1193,2.5 2.5,2.5 1.3456,-0.0013 2.4488,-1.0674 2.4961,-2.4121 0.00259,-0.02923 0.00389,-0.05855 0.00391,-0.08789 v -7.2441 l 5,-1.4277 v 3.1719 l 2,-1 v -3.5 c -9.16e-4,-0.56314 -0.4664,-1.0145 -1.0293,-0.99805 z m -1.9707,9.521157 V 13.5 c 0.54636,0 0.517513,0 1,0 v -2.976843 z m 2,-2.143157 v 4.12 c 0.505626,0 0.532952,0 1,0 V 8.38 Z m -4,0.7490447 V 11.5 c 0.5322425,0 0.5718157,0 1,0 V 9.1290447 Z m 6,0.5057894 0,1.8651659 c 0.468171,0 0.466488,0 1,0 l 0,-1.8651659 z"/></svg>
